<svg width="21" height="21" viewBox="0 0 21 21" fill="none" xmlns="http://www.w3.org/2000/svg">
<rect x="0.5" y="0.0900269" width="20" height="20" rx="10" fill="#E6E8F7"/>
<g clip-path="url(#clip0_1_64)">
<path d="M11.9453 6.10571C11.8672 6.02759 11.7793 5.96574 11.6816 5.92017C11.584 5.87459 11.4766 5.85181 11.3594 5.85181C11.2422 5.85181 11.1348 5.87459 11.0371 5.92017C10.9395 5.96574 10.8516 6.02759 10.7734 6.10571L4.5625 12.3167L1.94531 9.69946C1.86719 9.62134 1.7793 9.56274 1.68164 9.52368C1.58398 9.48462 1.47656 9.46509 1.35938 9.46509C1.125 9.46509 0.923177 9.54647 0.753906 9.70923C0.584635 9.87199 0.5 10.0706 0.5 10.3049C0.5 10.4351 0.526042 10.5523 0.578125 10.6565C0.630208 10.7607 0.695312 10.8518 0.773438 10.9299L3.97656 14.1331C4.04167 14.1982 4.1263 14.2535 4.23047 14.2991C4.33464 14.3446 4.44531 14.3674 4.5625 14.3674C4.67969 14.3674 4.78711 14.3446 4.88477 14.2991C4.98242 14.2535 5.07031 14.1982 5.14844 14.1331L11.9453 7.31665C12.0365 7.23853 12.1048 7.14738 12.1504 7.04321C12.196 6.93905 12.2188 6.82837 12.2188 6.71118C12.2188 6.59399 12.196 6.48006 12.1504 6.36938C12.1048 6.25871 12.0365 6.17082 11.9453 6.10571Z" fill="#747ED1"/>
</g>
<defs>
<clipPath id="clip0_1_64">
<rect width="20" height="20" fill="white" transform="matrix(1 0 0 -1 0.5 20.0901)"/>
</clipPath>
</defs>
</svg>
